<svg width="512" height="512" viewBox="0 0 512 512" fill="none" xmlns="http://www.w3.org/2000/svg">
<path d="M244.03 498.162H223.965C222.13 498.162 220.37 497.433 219.073 496.136C217.775 494.838 217.046 493.078 217.046 491.243C217.046 489.408 217.775 487.648 219.073 486.351C220.37 485.053 222.13 484.324 223.965 484.324H244.03C245.865 484.324 247.625 485.053 248.923 486.351C250.22 487.648 250.949 489.408 250.949 491.243C250.949 493.078 250.22 494.838 248.923 496.136C247.625 497.433 245.865 498.162 244.03 498.162Z" fill="#AC8361"/>
<path d="M470.487 498.162H361.444C359.609 498.162 357.85 497.433 356.552 496.136C355.255 494.838 354.526 493.078 354.526 491.243C354.526 489.408 355.255 487.648 356.552 486.351C357.85 485.053 359.609 484.324 361.444 484.324H463.568V456.649H48.4326V484.324H175.533C177.368 484.324 179.128 485.053 180.426 486.351C181.723 487.648 182.452 489.408 182.452 491.243C182.452 493.078 181.723 494.838 180.426 496.136C179.128 497.433 177.368 498.162 175.533 498.162H41.5136C39.6786 498.162 37.9188 497.433 36.6212 496.136C35.3237 494.838 34.5947 493.078 34.5947 491.243V449.73C34.5947 447.895 35.3237 446.135 36.6212 444.837C37.9188 443.54 39.6786 442.811 41.5136 442.811H470.487C472.322 442.811 474.082 443.54 475.379 444.837C476.677 446.135 477.406 447.895 477.406 449.73V491.243C477.406 493.078 476.677 494.838 475.379 496.136C474.082 497.433 472.322 498.162 470.487 498.162Z" fill="#AC8361"/>
<path d="M313.012 498.162H292.463C290.628 498.162 288.868 497.433 287.57 496.136C286.273 494.838 285.544 493.078 285.544 491.243C285.544 489.408 286.273 487.648 287.57 486.351C288.868 485.053 290.628 484.324 292.463 484.324H313.012C314.847 484.324 316.607 485.053 317.904 486.351C319.202 487.648 319.931 489.408 319.931 491.243C319.931 493.078 319.202 494.838 317.904 496.136C316.607 497.433 314.847 498.162 313.012 498.162Z" fill="#AC8361"/>
<path d="M428.973 456.649H264.441C262.606 456.649 260.846 455.92 259.548 454.622C258.251 453.325 257.522 451.565 257.522 449.73V63.2874C257.522 61.7538 258.032 60.2638 258.972 59.0515C259.911 57.8392 261.226 56.9733 262.711 56.5899L427.243 14.0593C428.265 13.7954 429.334 13.7689 430.369 13.9818C431.403 14.1948 432.374 14.6417 433.209 15.2881C434.044 15.9346 434.72 16.7635 435.185 17.7114C435.65 18.6593 435.891 19.701 435.892 20.7568V449.73C435.892 451.565 435.163 453.325 433.865 454.622C432.568 455.92 430.808 456.649 428.973 456.649ZM271.36 442.811H422.054V29.6961L271.36 68.6496V442.811Z" fill="#AC8361"/>
<path d="M264.441 456.649H173.734C171.899 456.649 170.139 455.92 168.841 454.622C167.544 453.324 166.815 451.565 166.815 449.73V125.108C166.813 123.634 167.282 122.199 168.153 121.01C169.025 119.822 170.252 118.942 171.658 118.5L262.365 90.2572C263.402 89.9311 264.501 89.8539 265.574 90.0318C266.646 90.2098 267.661 90.6378 268.537 91.2814C269.413 91.9249 270.125 92.7657 270.616 93.7358C271.106 94.7058 271.361 95.7778 271.36 96.8647V449.73C271.36 451.565 270.631 453.324 269.333 454.622C268.036 455.92 266.276 456.649 264.441 456.649ZM180.653 442.811H257.522V106.268L180.653 130.2V442.811Z" fill="#AC8361"/>
<path d="M173.734 456.649H83.0268C81.1918 456.649 79.432 455.92 78.1344 454.622C76.8369 453.324 76.1079 451.565 76.1079 449.73V194.297C76.1064 192.823 76.5753 191.388 77.4465 190.199C78.3176 189.011 79.5455 188.131 80.9512 187.689L171.658 159.446C172.695 159.12 173.794 159.043 174.867 159.221C175.939 159.399 176.954 159.827 177.83 160.471C178.706 161.114 179.418 161.955 179.909 162.925C180.399 163.895 180.654 164.967 180.653 166.054V449.73C180.653 451.565 179.924 453.324 178.626 454.622C177.329 455.92 175.569 456.649 173.734 456.649ZM89.9458 442.811H166.815V175.457L89.9458 199.389V442.811Z" fill="#AC8361"/>
<path d="M428.973 138.378H359.784C357.949 138.378 356.189 137.649 354.891 136.352C353.594 135.054 352.865 133.294 352.865 131.459C352.865 129.624 353.594 127.865 354.891 126.567C356.189 125.269 357.949 124.541 359.784 124.541H428.973C430.808 124.541 432.568 125.269 433.865 126.567C435.163 127.865 435.892 129.624 435.892 131.459C435.892 133.294 435.163 135.054 433.865 136.352C432.568 137.649 430.808 138.378 428.973 138.378Z" fill="#AC8361"/>
<path d="M327.784 138.378H320.291C318.455 138.378 316.696 137.649 315.398 136.352C314.101 135.054 313.372 133.294 313.372 131.459C313.372 129.624 314.101 127.865 315.398 126.567C316.696 125.269 318.455 124.541 320.291 124.541H327.784C329.619 124.541 331.379 125.269 332.676 126.567C333.974 127.865 334.703 129.624 334.703 131.459C334.703 133.294 333.974 135.054 332.676 136.352C331.379 137.649 329.619 138.378 327.784 138.378Z" fill="#AC8361"/>
<path d="M428.973 188.195H359.784C357.949 188.195 356.189 187.466 354.891 186.168C353.594 184.87 352.865 183.111 352.865 181.276C352.865 179.441 353.594 177.681 354.891 176.383C356.189 175.086 357.949 174.357 359.784 174.357H428.973C430.808 174.357 432.568 175.086 433.865 176.383C435.163 177.681 435.892 179.441 435.892 181.276C435.892 183.111 435.163 184.87 433.865 186.168C432.568 187.466 430.808 188.195 428.973 188.195Z" fill="#AC8361"/>
<path d="M327.784 188.195H320.291C318.455 188.195 316.696 187.466 315.398 186.168C314.101 184.87 313.372 183.111 313.372 181.276C313.372 179.441 314.101 177.681 315.398 176.383C316.696 175.086 318.455 174.357 320.291 174.357H327.784C329.619 174.357 331.379 175.086 332.676 176.383C333.974 177.681 334.703 179.441 334.703 181.276C334.703 183.111 333.974 184.87 332.676 186.168C331.379 187.466 329.619 188.195 327.784 188.195Z" fill="#AC8361"/>
<path d="M428.973 238.011H359.784C357.949 238.011 356.189 237.282 354.891 235.984C353.594 234.687 352.865 232.927 352.865 231.092C352.865 229.257 353.594 227.497 354.891 226.2C356.189 224.902 357.949 224.173 359.784 224.173H428.973C430.808 224.173 432.568 224.902 433.865 226.2C435.163 227.497 435.892 229.257 435.892 231.092C435.892 232.927 435.163 234.687 433.865 235.984C432.568 237.282 430.808 238.011 428.973 238.011Z" fill="#AC8361"/>
<path d="M327.784 238.011H320.291C318.455 238.011 316.696 237.282 315.398 235.984C314.101 234.687 313.372 232.927 313.372 231.092C313.372 229.257 314.101 227.497 315.398 226.2C316.696 224.902 318.455 224.173 320.291 224.173H327.784C329.619 224.173 331.379 224.902 332.676 226.2C333.974 227.497 334.703 229.257 334.703 231.092C334.703 232.927 333.974 234.687 332.676 235.984C331.379 237.282 329.619 238.011 327.784 238.011Z" fill="#AC8361"/>
<path d="M428.973 287.827H359.784C357.949 287.827 356.189 287.098 354.891 285.801C353.594 284.503 352.865 282.743 352.865 280.908C352.865 279.073 353.594 277.313 354.891 276.016C356.189 274.718 357.949 273.989 359.784 273.989H428.973C430.808 273.989 432.568 274.718 433.865 276.016C435.163 277.313 435.892 279.073 435.892 280.908C435.892 282.743 435.163 284.503 433.865 285.801C432.568 287.098 430.808 287.827 428.973 287.827Z" fill="#AC8361"/>
<path d="M327.784 287.827H320.291C318.455 287.827 316.696 287.098 315.398 285.801C314.101 284.503 313.372 282.743 313.372 280.908C313.372 279.073 314.101 277.313 315.398 276.016C316.696 274.718 318.455 273.989 320.291 273.989H327.784C329.619 273.989 331.379 274.718 332.676 276.016C333.974 277.313 334.703 279.073 334.703 280.908C334.703 282.743 333.974 284.503 332.676 285.801C331.379 287.098 329.619 287.827 327.784 287.827Z" fill="#AC8361"/>
<path d="M428.973 337.643H359.784C357.949 337.643 356.189 336.914 354.891 335.617C353.594 334.319 352.865 332.559 352.865 330.724C352.865 328.889 353.594 327.129 354.891 325.832C356.189 324.534 357.949 323.805 359.784 323.805H428.973C430.808 323.805 432.568 324.534 433.865 325.832C435.163 327.129 435.892 328.889 435.892 330.724C435.892 332.559 435.163 334.319 433.865 335.617C432.568 336.914 430.808 337.643 428.973 337.643Z" fill="#AC8361"/>
<path d="M327.784 337.643H320.291C318.455 337.643 316.696 336.914 315.398 335.617C314.101 334.319 313.372 332.559 313.372 330.724C313.372 328.889 314.101 327.129 315.398 325.832C316.696 324.534 318.455 323.805 320.291 323.805H327.784C329.619 323.805 331.379 324.534 332.676 325.832C333.974 327.129 334.703 328.889 334.703 330.724C334.703 332.559 333.974 334.319 332.676 335.617C331.379 336.914 329.619 337.643 327.784 337.643Z" fill="#AC8361"/>
<path d="M428.973 387.459H359.784C357.949 387.459 356.189 386.73 354.891 385.433C353.594 384.135 352.865 382.376 352.865 380.541C352.865 378.705 353.594 376.946 354.891 375.648C356.189 374.351 357.949 373.622 359.784 373.622H428.973C430.808 373.622 432.568 374.351 433.865 375.648C435.163 376.946 435.892 378.705 435.892 380.541C435.892 382.376 435.163 384.135 433.865 385.433C432.568 386.73 430.808 387.459 428.973 387.459Z" fill="#AC8361"/>
<path d="M327.784 387.459H320.291C318.455 387.459 316.696 386.73 315.398 385.433C314.101 384.135 313.372 382.376 313.372 380.541C313.372 378.705 314.101 376.946 315.398 375.648C316.696 374.351 318.455 373.622 320.291 373.622H327.784C329.619 373.622 331.379 374.351 332.676 375.648C333.974 376.946 334.703 378.705 334.703 380.541C334.703 382.376 333.974 384.135 332.676 385.433C331.379 386.73 329.619 387.459 327.784 387.459Z" fill="#AC8361"/>
<path d="M264.441 260.615C263.558 260.616 262.684 260.444 261.867 260.11L171.16 223.675C169.471 222.982 168.125 221.649 167.414 219.967C166.703 218.285 166.686 216.391 167.366 214.697C168.046 213.002 169.368 211.645 171.045 210.922C172.721 210.198 174.615 210.166 176.315 210.833L267.022 247.275C268.513 247.874 269.75 248.974 270.519 250.385C271.288 251.797 271.542 253.432 271.237 255.01C270.932 256.588 270.086 258.011 268.846 259.034C267.606 260.056 266.048 260.616 264.441 260.615Z" fill="#AC8361"/>
<path d="M83.0268 260.615C81.4194 260.616 79.8618 260.056 78.6217 259.034C77.3816 258.011 76.5363 256.588 76.231 255.01C75.9256 253.432 76.1793 251.797 76.9485 250.385C77.7177 248.974 78.9543 247.874 80.4461 247.275L171.16 210.833C172.86 210.166 174.754 210.198 176.43 210.922C178.106 211.645 179.429 213.002 180.109 214.697C180.789 216.391 180.772 218.285 180.061 219.967C179.35 221.649 178.004 222.982 176.315 223.675L85.6076 260.11C84.7884 260.444 83.9117 260.616 83.0268 260.615Z" fill="#AC8361"/>
<path d="M264.441 315.738C263.559 315.735 262.685 315.564 261.867 315.233L171.16 278.791C169.514 278.069 168.214 276.735 167.534 275.071C166.855 273.407 166.849 271.544 167.519 269.876C168.189 268.208 169.481 266.866 171.123 266.135C172.765 265.403 174.627 265.339 176.315 265.956L267.022 302.398C268.514 302.997 269.75 304.097 270.52 305.508C271.289 306.92 271.542 308.555 271.237 310.133C270.932 311.711 270.086 313.134 268.846 314.157C267.606 315.18 266.049 315.739 264.441 315.738Z" fill="#AC8361"/>
<path d="M83.0268 315.738C81.4194 315.739 79.8618 315.18 78.6217 314.157C77.3816 313.134 76.5363 311.711 76.231 310.133C75.9256 308.555 76.1793 306.92 76.9485 305.508C77.7177 304.097 78.9543 302.997 80.4461 302.398L171.16 265.956C172.848 265.339 174.71 265.403 176.352 266.135C177.994 266.866 179.286 268.208 179.956 269.876C180.626 271.544 180.62 273.407 179.941 275.071C179.261 276.735 177.961 278.069 176.315 278.791L85.6076 315.233C84.7875 315.565 83.9114 315.736 83.0268 315.738Z" fill="#AC8361"/>
<path d="M264.441 370.854C263.559 370.851 262.685 370.68 261.867 370.349L171.16 333.907C169.514 333.185 168.214 331.851 167.534 330.187C166.855 328.523 166.849 326.66 167.519 324.992C168.189 323.324 169.481 321.983 171.123 321.251C172.765 320.519 174.627 320.455 176.315 321.072L267.022 357.507C268.518 358.104 269.76 359.203 270.532 360.616C271.305 362.029 271.56 363.667 271.255 365.249C270.949 366.83 270.101 368.255 268.857 369.278C267.614 370.302 266.052 370.859 264.441 370.854Z" fill="#AC8361"/>
<path d="M83.0271 370.854C81.4166 370.859 79.8548 370.302 78.6111 369.278C77.3673 368.255 76.5195 366.83 76.2137 365.249C75.908 363.667 76.1634 362.029 76.9361 360.616C77.7087 359.203 78.9501 358.104 80.4463 357.507L171.16 321.072C172.848 320.455 174.71 320.519 176.352 321.251C177.994 321.983 179.286 323.324 179.956 324.992C180.626 326.66 180.621 328.523 179.941 330.187C179.261 331.851 177.961 333.185 176.315 333.907L85.6079 370.349C84.7878 370.681 83.9117 370.852 83.0271 370.854Z" fill="#AC8361"/>
<path d="M264.441 425.977C263.557 425.978 262.681 425.808 261.86 425.479L171.16 389.037C169.471 388.344 168.125 387.011 167.414 385.329C166.703 383.648 166.686 381.753 167.366 380.059C168.046 378.364 169.368 377.008 171.045 376.284C172.721 375.56 174.615 375.529 176.315 376.196L267.022 412.637C268.513 413.236 269.75 414.336 270.519 415.747C271.288 417.159 271.542 418.794 271.237 420.372C270.932 421.951 270.086 423.373 268.846 424.396C267.606 425.419 266.048 425.978 264.441 425.977Z" fill="#AC8361"/>
<path d="M83.0268 425.977C81.4194 425.978 79.8618 425.419 78.6217 424.396C77.3816 423.373 76.5363 421.951 76.231 420.372C75.9256 418.794 76.1793 417.159 76.9485 415.747C77.7177 414.336 78.9543 413.236 80.4461 412.637L171.16 376.196C172.86 375.529 174.754 375.56 176.43 376.284C178.106 377.008 179.429 378.364 180.109 380.059C180.789 381.753 180.772 383.648 180.061 385.329C179.35 387.011 178.004 388.344 176.315 389.037L85.6076 425.514C84.7847 425.831 83.9088 425.989 83.0268 425.977Z" fill="#AC8361"/>
</svg>
