<svg width="512" height="512" viewBox="0 0 512 512" fill="none" xmlns="http://www.w3.org/2000/svg">
<path d="M131.46 178.923C130.551 178.939 129.648 178.776 128.803 178.443C127.957 178.11 127.185 177.613 126.532 176.982C125.211 175.707 124.452 173.96 124.42 172.125C124.387 170.29 125.086 168.518 126.36 167.197C127.635 165.877 129.382 165.117 131.217 165.085C165.167 164.706 199.043 161.839 232.573 156.506C233.168 156.382 233.778 156.34 234.385 156.381C242.79 156.826 250.944 159.397 258.083 163.854C259.261 164.71 260.14 165.917 260.593 167.302C261.045 168.687 261.049 170.18 260.603 171.567C260.158 172.954 259.286 174.166 258.111 175.028C256.937 175.891 255.52 176.36 254.063 176.37C252.433 176.37 250.853 175.811 249.586 174.786C244.922 172.112 239.698 170.565 234.33 170.268C200.351 175.606 166.033 178.499 131.639 178.923H131.46Z" fill="#AC8361"/>
<path d="M384.553 343.524C378.65 343.532 372.897 341.667 368.121 338.197L366.633 337.166C366.44 337.035 366.114 336.772 365.81 336.474L284.367 277.822C283.607 277.303 282.958 276.638 282.458 275.865C281.958 275.092 281.617 274.227 281.456 273.32C281.295 272.414 281.316 271.485 281.518 270.587C281.721 269.689 282.1 268.84 282.635 268.09C283.169 267.341 283.848 266.706 284.631 266.222C285.414 265.738 286.286 265.415 287.196 265.272C288.105 265.13 289.034 265.17 289.928 265.391C290.821 265.612 291.662 266.009 292.4 266.558L297.935 270.502L374.147 325.459C374.375 325.623 374.593 325.801 374.798 325.992L376.119 326.912C379.12 329.063 382.833 329.98 386.49 329.474C390.148 328.968 393.471 327.078 395.776 324.193C397.19 322.409 398.153 320.31 398.586 318.075C399.018 315.84 398.906 313.534 398.26 311.351C397.483 308.602 395.876 306.159 393.659 304.356L284.727 215.607C243.013 237.748 213.462 226.359 199.355 217.344C197.023 215.827 195.13 213.725 193.865 211.247C192.599 208.77 192.005 206.004 192.141 203.226C192.278 200.448 193.14 197.753 194.643 195.412C196.145 193.071 198.235 191.165 200.704 189.883L263.057 156.769C267.037 154.687 271.39 153.413 275.864 153.021C280.339 152.63 284.846 153.127 289.128 154.486L326.012 166.455C336.872 170.027 348.649 169.603 359.223 165.259L375.289 158.679C376.13 158.334 377.03 158.158 377.939 158.161C378.848 158.164 379.748 158.347 380.586 158.697C381.424 159.048 382.186 159.561 382.826 160.206C383.466 160.851 383.973 161.615 384.318 162.456C384.663 163.297 384.839 164.198 384.836 165.107C384.832 166.016 384.65 166.915 384.299 167.753C383.949 168.592 383.436 169.353 382.791 169.993C382.146 170.634 381.381 171.141 380.54 171.486L364.489 178.059C350.873 183.663 335.701 184.213 321.716 179.608L284.866 167.646C282.342 166.853 279.686 166.567 277.051 166.804C274.416 167.042 271.854 167.798 269.513 169.029L207.145 202.15C206.798 202.314 206.503 202.57 206.293 202.892C206.083 203.213 205.966 203.586 205.955 203.97C205.927 204.317 205.994 204.665 206.15 204.976C206.307 205.288 206.546 205.55 206.841 205.734C221.371 215.019 246.313 221.828 282.022 201.313C283.236 200.615 284.634 200.303 286.03 200.416C287.426 200.53 288.755 201.065 289.84 201.95L402.342 293.625C406.754 297.184 409.962 302.016 411.53 307.463C412.773 311.75 412.982 316.271 412.14 320.655C411.298 325.039 409.429 329.16 406.687 332.683C404.075 336.064 400.72 338.8 396.882 340.68C393.045 342.56 388.827 343.533 384.553 343.524Z" fill="#AC8361"/>
<path d="M355.923 375.594C350.06 375.6 344.34 373.779 339.56 370.384L264.766 317.316C263.305 316.24 262.324 314.634 262.035 312.843C261.747 311.052 262.173 309.219 263.223 307.739C264.273 306.259 265.862 305.251 267.648 304.931C269.434 304.612 271.274 305.007 272.771 306.031L347.565 359.092C350.703 361.142 354.512 361.899 358.195 361.207C361.879 360.514 365.152 358.425 367.331 355.376C369.511 352.326 370.428 348.553 369.89 344.844C369.353 341.134 367.402 337.776 364.447 335.471L289.903 281.745C288.529 280.634 287.632 279.039 287.397 277.287C287.162 275.536 287.605 273.761 288.637 272.326C289.669 270.891 291.211 269.906 292.947 269.572C294.682 269.238 296.479 269.581 297.97 270.53L372.535 324.262C377.389 327.776 381.005 332.737 382.866 338.433C384.726 344.129 384.735 350.268 382.891 355.969C381.047 361.67 377.445 366.642 372.602 370.169C367.758 373.697 361.922 375.601 355.93 375.607L355.923 375.594Z" fill="#AC8361"/>
<path d="M323.633 403.318C318.063 403.316 312.628 401.609 308.058 398.426L241.035 352C239.525 350.955 238.493 349.353 238.165 347.547C237.836 345.741 238.239 343.878 239.284 342.369C240.329 340.859 241.931 339.827 243.737 339.499C245.543 339.171 247.406 339.573 248.915 340.618L315.939 387.044C317.41 388.062 319.068 388.78 320.818 389.158C322.567 389.535 324.374 389.563 326.134 389.242C327.895 388.921 329.575 388.256 331.078 387.285C332.582 386.314 333.879 385.057 334.897 383.585C336.921 380.633 337.708 377.005 337.087 373.479C336.466 369.954 334.487 366.813 331.575 364.731L264.877 317.419C264.119 316.901 263.471 316.236 262.972 315.465C262.474 314.694 262.133 313.83 261.972 312.926C261.81 312.022 261.83 311.094 262.03 310.198C262.231 309.301 262.608 308.454 263.139 307.705C263.671 306.955 264.346 306.319 265.126 305.834C265.906 305.348 266.775 305.023 267.682 304.877C268.588 304.731 269.515 304.767 270.408 304.983C271.301 305.198 272.142 305.59 272.882 306.134L339.581 353.446C345.452 357.642 349.443 363.973 350.696 371.079C351.95 378.186 350.366 385.5 346.285 391.452C344.246 394.426 341.637 396.966 338.61 398.926C335.583 400.886 332.197 402.225 328.649 402.868C326.994 403.17 325.315 403.32 323.633 403.318Z" fill="#AC8361"/>
<path d="M284.098 426.067C279.257 426.043 274.507 424.75 270.322 422.317L233.119 400.868C231.543 399.944 230.396 398.434 229.929 396.668C229.462 394.902 229.713 393.022 230.626 391.44C231.54 389.858 233.042 388.701 234.806 388.222C236.569 387.743 238.45 387.982 240.038 388.885L277.234 410.333C280.379 412.108 284.093 412.584 287.583 411.658C291.073 410.732 294.063 408.479 295.915 405.379C297.675 402.408 298.234 398.877 297.479 395.507C296.724 392.137 294.713 389.182 291.854 387.245L244.321 354.318C243.574 353.8 242.936 353.141 242.444 352.377C241.952 351.613 241.616 350.76 241.453 349.866C241.291 348.972 241.307 348.054 241.499 347.166C241.691 346.278 242.056 345.437 242.574 344.69C243.091 343.943 243.751 343.306 244.515 342.814C245.279 342.322 246.132 341.985 247.026 341.823C247.92 341.66 248.837 341.676 249.725 341.868C250.613 342.06 251.455 342.426 252.202 342.943L299.728 375.863C304.552 379.203 308.185 383.997 310.095 389.545C312.006 395.093 312.095 401.106 310.35 406.709C308.605 412.311 305.117 417.21 300.394 420.692C295.671 424.174 289.959 426.057 284.091 426.067H284.098Z" fill="#AC8361"/>
<path d="M205.755 421.936C200.094 421.945 194.566 420.226 189.908 417.01C185.25 413.794 181.685 409.233 179.688 403.937C177.69 398.64 177.356 392.861 178.731 387.37C180.105 381.879 183.122 376.938 187.378 373.206L205.859 357.016C208.605 354.605 211.799 352.759 215.259 351.582C218.719 350.406 222.377 349.922 226.023 350.159C229.67 350.396 233.234 351.349 236.513 352.964C239.791 354.578 242.719 356.823 245.13 359.569C247.541 362.316 249.387 365.511 250.563 368.971C251.739 372.431 252.222 376.089 251.984 379.735C251.746 383.382 250.793 386.946 249.177 390.224C247.562 393.503 245.317 396.431 242.57 398.841L224.09 415.066C219.018 419.51 212.499 421.953 205.755 421.936ZM224.208 363.935C220.815 363.926 217.535 365.156 214.985 367.395L196.497 383.606C195.116 384.817 193.987 386.289 193.175 387.937C192.363 389.585 191.883 391.377 191.763 393.21C191.643 395.043 191.886 396.882 192.477 398.622C193.068 400.361 193.995 401.968 195.207 403.349C197.654 406.138 201.109 407.841 204.811 408.083C206.645 408.203 208.484 407.96 210.223 407.369C211.963 406.778 213.569 405.851 214.95 404.639L233.431 388.414C235.562 386.538 237.072 384.057 237.759 381.301C238.446 378.545 238.278 375.646 237.277 372.988C236.275 370.33 234.488 368.041 232.154 366.424C229.819 364.806 227.048 363.938 224.208 363.935Z" fill="#AC8361"/>
<path d="M163.868 403.089C163.252 403.089 162.636 403.089 162.02 403.034C158.371 402.806 154.804 401.856 151.524 400.241C148.244 398.626 145.316 396.377 142.91 393.624C140.466 390.877 138.589 387.675 137.386 384.2C136.183 380.726 135.678 377.048 135.899 373.378C136.121 369.708 137.066 366.118 138.678 362.814C140.291 359.51 142.54 356.557 145.297 354.124L176.17 327.023C178.916 324.612 182.11 322.765 185.57 321.589C189.03 320.412 192.688 319.929 196.334 320.166C199.981 320.403 203.545 321.356 206.824 322.97C210.102 324.585 213.03 326.83 215.441 329.576L210.439 334.371L215.635 329.804C218.047 332.55 219.894 335.744 221.071 339.204C222.248 342.664 222.732 346.322 222.495 349.969C222.258 353.616 221.305 357.181 219.689 360.459C218.074 363.737 215.829 366.665 213.082 369.076L182.182 396.177C177.127 400.641 170.612 403.1 163.868 403.089ZM194.484 333.942C191.095 333.932 187.82 335.163 185.275 337.401L154.403 364.503C152.336 366.369 150.863 368.801 150.168 371.498C149.474 374.195 149.587 377.036 150.495 379.669C151.403 382.301 153.065 384.609 155.274 386.304C157.483 387.999 160.142 389.007 162.92 389.203C164.755 389.329 166.596 389.088 168.336 388.494C170.077 387.9 171.681 386.965 173.056 385.744L203.928 358.642C205.31 357.43 206.439 355.958 207.251 354.31C208.063 352.661 208.543 350.869 208.662 349.036C208.782 347.202 208.539 345.362 207.948 343.623C207.356 341.883 206.428 340.277 205.215 338.896L205.015 338.667C203.807 337.291 202.339 336.168 200.696 335.362C199.053 334.555 197.266 334.082 195.439 333.969C195.114 333.956 194.788 333.949 194.477 333.949L194.484 333.942Z" fill="#AC8361"/>
<path d="M128.955 377.69C128.346 377.69 127.73 377.69 127.108 377.635C123.459 377.406 119.891 376.457 116.611 374.842C113.331 373.227 110.403 370.978 107.997 368.225L107.243 367.325C102.38 361.778 99.9186 354.527 100.4 347.165C100.881 339.803 104.266 332.934 109.81 328.067L145.602 296.649C148.348 294.237 151.542 292.39 155.002 291.213C158.462 290.036 162.12 289.552 165.767 289.789C169.414 290.026 172.978 290.979 176.257 292.594C179.535 294.209 182.463 296.455 184.874 299.202L185.655 300.094C190.52 305.641 192.983 312.893 192.502 320.255C192.02 327.617 188.634 334.486 183.089 339.352L147.297 370.771C142.235 375.242 135.709 377.704 128.955 377.69ZM163.916 303.574C160.527 303.566 157.252 304.796 154.707 307.034L118.916 338.453C116.124 340.902 114.419 344.359 114.177 348.065C113.934 351.771 115.173 355.421 117.622 358.213L118.404 359.106C120.854 361.89 124.309 363.588 128.01 363.826C131.711 364.065 135.356 362.825 138.143 360.379L173.935 328.96C175.316 327.748 176.445 326.276 177.258 324.628C178.07 322.979 178.549 321.187 178.669 319.353C178.788 317.52 178.546 315.68 177.954 313.94C177.363 312.201 176.434 310.594 175.222 309.213L174.454 308.335C173.245 306.953 171.775 305.824 170.128 305.014C168.481 304.205 166.689 303.729 164.857 303.616C164.532 303.588 164.228 303.574 163.916 303.574Z" fill="#AC8361"/>
<path d="M98.8784 346.894C98.2695 346.894 97.6468 346.894 97.031 346.831C91.5041 346.483 86.2045 344.504 81.802 341.145C77.3996 337.785 74.0918 333.196 72.2969 327.957C70.5019 322.718 70.3004 317.065 71.7177 311.711C73.135 306.358 76.1075 301.545 80.2596 297.88L102.67 278.21C105.416 275.798 108.61 273.951 112.07 272.774C115.53 271.597 119.188 271.113 122.835 271.35C126.482 271.587 130.046 272.54 133.325 274.155C136.603 275.77 139.531 278.016 141.942 280.763L142.184 281.04C144.596 283.785 146.443 286.979 147.62 290.439C148.797 293.899 149.281 297.557 149.044 301.204C148.807 304.851 147.853 308.416 146.238 311.694C144.623 314.973 142.378 317.901 139.631 320.311L117.22 339.982C112.157 344.451 105.632 346.91 98.8784 346.894ZM121.019 285.129C117.63 285.12 114.355 286.35 111.81 288.588L89.3995 308.259C88.0181 309.47 86.889 310.943 86.0767 312.591C85.2644 314.239 84.7848 316.031 84.6653 317.865C84.5458 319.699 84.7887 321.538 85.3802 323.278C85.9717 325.018 86.9002 326.624 88.1125 328.005C89.3153 329.43 90.7889 330.601 92.4479 331.452C94.1068 332.303 95.9181 332.816 97.7768 332.961C99.6355 333.106 101.505 332.882 103.276 332.299C105.047 331.717 106.685 330.789 108.094 329.569L130.505 309.898C131.886 308.686 133.015 307.214 133.828 305.566C134.64 303.918 135.119 302.125 135.239 300.292C135.358 298.458 135.116 296.619 134.524 294.879C133.933 293.139 133.004 291.533 131.792 290.152L131.55 289.875C130.341 288.491 128.87 287.361 127.221 286.55C125.573 285.739 123.78 285.263 121.946 285.149C121.607 285.142 121.296 285.129 120.984 285.129H121.019Z" fill="#AC8361"/>
<path d="M86.3274 308.667C84.8298 308.67 83.3722 308.184 82.176 307.283L58.5341 289.294C57.8108 288.744 57.203 288.057 56.7454 287.271C56.2877 286.486 55.9892 285.619 55.8668 284.718C55.7444 283.818 55.8005 282.902 56.032 282.024C56.2635 281.145 56.6659 280.32 57.216 279.597C58.3271 278.136 59.973 277.177 61.7915 276.93C62.6919 276.807 63.6076 276.864 64.4864 277.095C65.3651 277.327 66.1896 277.729 66.9129 278.279L90.5548 296.268C91.7195 297.142 92.5789 298.36 93.0109 299.75C93.4429 301.14 93.4254 302.631 92.9609 304.011C92.4964 305.391 91.6086 306.589 90.4239 307.435C89.2391 308.28 87.8177 308.731 86.362 308.722L86.3274 308.667Z" fill="#AC8361"/>
<path d="M404.888 316.333C403.52 316.333 402.183 315.927 401.045 315.166C399.907 314.406 399.021 313.326 398.497 312.061C397.974 310.797 397.837 309.406 398.104 308.065C398.37 306.723 399.029 305.49 399.996 304.522L438.819 265.686C440.123 264.426 441.871 263.729 443.685 263.744C445.499 263.76 447.235 264.488 448.518 265.771C449.8 267.053 450.528 268.789 450.544 270.603C450.56 272.417 449.862 274.165 448.602 275.47L409.78 314.292C409.139 314.937 408.377 315.449 407.537 315.799C406.698 316.15 405.798 316.331 404.888 316.333Z" fill="#AC8361"/>
<path d="M457.825 301.976C456.642 301.978 455.478 301.676 454.444 301.099C453.411 300.522 452.543 299.691 451.923 298.683L367.443 161.273C366.55 159.819 366.226 158.087 366.533 156.409C366.839 154.731 367.755 153.226 369.104 152.182L452.774 87.3789C453.693 86.6676 454.775 86.199 455.923 86.0163C457.07 85.8336 458.245 85.9427 459.339 86.3335C460.433 86.7244 461.41 87.3844 462.182 88.2527C462.954 89.121 463.495 90.1697 463.754 91.302L504.901 270.827C505.243 272.288 505.1 273.82 504.495 275.193C503.889 276.566 502.854 277.705 501.546 278.438L461.201 301.111C460.169 301.685 459.006 301.983 457.825 301.976ZM382.485 159.308L460.226 285.751L490.261 268.869L452.691 104.946L382.485 159.308Z" fill="#AC8361"/>
<path d="M54.1752 304.432C52.9902 304.432 51.8252 304.127 50.7919 303.547L10.4476 280.908C9.13878 280.175 8.10372 279.036 7.49846 277.663C6.8932 276.291 6.75053 274.758 7.09196 273.297L48.2457 93.7929C48.5055 92.6606 49.0461 91.612 49.8179 90.7437C50.5896 89.8754 51.5676 89.2154 52.6616 88.8245C53.7555 88.4337 54.9303 88.3245 56.0775 88.5072C57.2248 88.6899 58.3076 89.1586 59.226 89.8699L142.903 154.666C144.252 155.71 145.168 157.215 145.474 158.893C145.781 160.571 145.457 162.303 144.564 163.757L60.077 301.167C59.4537 302.169 58.5841 302.996 57.551 303.568C56.518 304.139 55.3559 304.437 54.1752 304.432ZM21.7393 271.374L51.7743 288.249L129.515 161.799L59.309 107.437L21.7393 271.374Z" fill="#AC8361"/>
</svg>
