<svg width="512" height="512" viewBox="0 0 512 512" fill="none" xmlns="http://www.w3.org/2000/svg">
<path d="M442.811 498.162H69.1894C67.3544 498.162 65.5946 497.433 64.297 496.136C62.9995 494.838 62.2705 493.078 62.2705 491.243V241.733C62.2705 239.898 62.9995 238.138 64.297 236.841C65.5946 235.543 67.3544 234.814 69.1894 234.814H442.811C444.646 234.814 446.406 235.543 447.703 236.841C449.001 238.138 449.73 239.898 449.73 241.733V491.243C449.73 493.078 449.001 494.838 447.703 496.136C446.406 497.433 444.646 498.162 442.811 498.162ZM76.1083 484.324H435.892V248.652H76.1083V484.324Z" fill="#AC8361"/>
<path d="M344.977 111.256C343.219 111.255 341.527 110.585 340.245 109.381L325.577 95.6125C324.91 94.9917 324.372 94.2453 323.995 93.4161C323.617 92.587 323.407 91.6914 323.376 90.7808C323.345 89.8701 323.495 88.9624 323.816 88.1098C324.137 87.2571 324.623 86.4762 325.247 85.812C325.871 85.1478 326.619 84.6133 327.45 84.2392C328.281 83.8651 329.178 83.6588 330.088 83.6321C330.999 83.6054 331.906 83.7589 332.757 84.0836C333.609 84.4084 334.387 84.8981 335.049 85.5247L349.717 99.2933C350.728 100.243 351.431 101.475 351.733 102.829C352.036 104.182 351.924 105.596 351.413 106.886C350.902 108.175 350.016 109.282 348.868 110.061C347.72 110.84 346.365 111.257 344.977 111.256Z" fill="#AC8361"/>
<path d="M491.243 248.666H20.7568C19.3695 248.667 18.0141 248.25 16.8664 247.471C15.7188 246.692 14.8319 245.585 14.3209 244.296C13.8099 243.006 13.6985 241.592 14.001 240.238C14.3035 238.884 15.006 237.653 16.0173 236.703L251.261 15.7129C252.544 14.5064 254.239 13.8347 256 13.8347C257.761 13.8347 259.456 14.5064 260.739 15.7129L299.755 52.3832C300.446 52.9976 301.007 53.7442 301.404 54.579C301.802 55.4137 302.028 56.3197 302.069 57.2433C302.111 58.1669 301.966 59.0894 301.645 59.9564C301.324 60.8233 300.833 61.6171 300.199 62.2909C299.566 62.9647 298.805 63.5047 297.959 63.8792C297.114 64.2536 296.202 64.4549 295.278 64.471C294.354 64.4871 293.435 64.3179 292.577 63.9732C291.72 63.6284 290.939 63.1153 290.283 62.464L256 30.2496L38.227 234.828H473.78L425.901 189.855C424.572 188.597 423.797 186.864 423.743 185.035C423.689 183.206 424.362 181.43 425.615 180.096C426.867 178.762 428.597 177.978 430.426 177.917C432.255 177.855 434.034 178.521 435.373 179.767L495.983 236.71C496.992 237.66 497.692 238.891 497.993 240.244C498.294 241.597 498.182 243.009 497.671 244.297C497.161 245.585 496.275 246.69 495.129 247.469C493.983 248.248 492.629 248.665 491.243 248.666Z" fill="#AC8361"/>
<path d="M395.278 158.513C393.517 158.513 391.822 157.843 390.538 156.638L375.593 142.585C374.314 141.316 373.581 139.597 373.549 137.795C373.518 135.993 374.191 134.25 375.425 132.937C376.659 131.623 378.357 130.843 380.157 130.762C381.958 130.682 383.719 131.307 385.065 132.504L400.01 146.557C401.019 147.506 401.719 148.737 402.02 150.089C402.321 151.441 402.21 152.852 401.7 154.14C401.19 155.428 400.306 156.533 399.161 157.313C398.016 158.092 396.663 158.51 395.278 158.513Z" fill="#AC8361"/>
<path d="M382.686 428.973H280.161C278.326 428.973 276.566 428.244 275.269 426.946C273.971 425.649 273.242 423.889 273.242 422.054V319.53C273.242 317.695 273.971 315.935 275.269 314.637C276.566 313.34 278.326 312.611 280.161 312.611H382.686C384.521 312.611 386.281 313.34 387.578 314.637C388.876 315.935 389.605 317.695 389.605 319.53V422.054C389.605 423.889 388.876 425.649 387.578 426.946C386.281 428.244 384.521 428.973 382.686 428.973ZM287.08 415.135H375.767V326.448H287.08V415.135Z" fill="#AC8361"/>
<path d="M331.416 428.973C329.581 428.973 327.821 428.244 326.524 426.946C325.226 425.649 324.497 423.889 324.497 422.054V319.53C324.497 317.695 325.226 315.935 326.524 314.637C327.821 313.34 329.581 312.611 331.416 312.611C333.251 312.611 335.011 313.34 336.308 314.637C337.606 315.935 338.335 317.695 338.335 319.53V422.054C338.335 423.889 337.606 425.649 336.308 426.946C335.011 428.244 333.251 428.973 331.416 428.973Z" fill="#AC8361"/>
<path d="M382.686 377.711H280.161C278.326 377.711 276.566 376.982 275.269 375.684C273.971 374.387 273.242 372.627 273.242 370.792C273.242 368.957 273.971 367.197 275.269 365.899C276.566 364.602 278.326 363.873 280.161 363.873H382.686C384.521 363.873 386.281 364.602 387.578 365.899C388.876 367.197 389.605 368.957 389.605 370.792C389.605 372.627 388.876 374.387 387.578 375.684C386.281 376.982 384.521 377.711 382.686 377.711Z" fill="#AC8361"/>
<path d="M237.27 498.162H129.314C127.479 498.162 125.72 497.433 124.422 496.136C123.124 494.838 122.396 493.078 122.396 491.243V417.564C122.396 401.416 128.81 385.929 140.229 374.51C151.647 363.092 167.134 356.677 183.282 356.677C199.43 356.677 214.917 363.092 226.335 374.51C237.754 385.929 244.168 401.416 244.168 417.564V491.243C244.168 493.075 243.442 494.831 242.149 496.128C240.856 497.425 239.102 498.157 237.27 498.162ZM136.254 484.324H230.351V417.564C230.351 405.086 225.395 393.119 216.571 384.295C207.748 375.472 195.781 370.515 183.303 370.515C170.825 370.515 158.858 375.472 150.034 384.295C141.211 393.119 136.254 405.086 136.254 417.564V484.324Z" fill="#AC8361"/>
<path d="M256 197.618C248.389 197.618 240.949 195.361 234.62 191.133C228.292 186.904 223.359 180.894 220.446 173.862C217.534 166.83 216.772 159.092 218.257 151.627C219.741 144.163 223.407 137.305 228.789 131.924C234.17 126.542 241.028 122.876 248.492 121.392C255.957 119.907 263.695 120.669 270.727 123.581C277.759 126.494 283.769 131.427 287.998 137.755C292.226 144.084 294.483 151.524 294.483 159.135C294.472 169.338 290.414 179.12 283.2 186.335C275.985 193.549 266.203 197.607 256 197.618ZM256 134.49C251.126 134.49 246.361 135.935 242.308 138.643C238.255 141.351 235.096 145.201 233.231 149.704C231.366 154.207 230.878 159.162 231.828 163.943C232.779 168.724 235.127 173.115 238.573 176.562C242.02 180.009 246.411 182.356 251.192 183.307C255.973 184.258 260.928 183.77 265.431 181.904C269.935 180.039 273.784 176.88 276.492 172.827C279.2 168.774 280.645 164.01 280.645 159.135C280.638 152.601 278.039 146.337 273.419 141.716C268.799 137.096 262.534 134.497 256 134.49Z" fill="#AC8361"/>
<path d="M103.784 170.69C101.949 170.69 100.189 169.961 98.8913 168.663C97.5937 167.366 96.8647 165.606 96.8647 163.771V27.6758C96.8647 25.8407 97.5937 24.0809 98.8913 22.7833C100.189 21.4858 101.949 20.7568 103.784 20.7568H166.054C167.889 20.7568 169.649 21.4858 170.946 22.7833C172.244 24.0809 172.973 25.8407 172.973 27.6758V105.237C172.973 107.072 172.244 108.832 170.946 110.129C169.649 111.427 167.889 112.156 166.054 112.156C164.219 112.156 162.459 111.427 161.162 110.129C159.864 108.832 159.135 107.072 159.135 105.237V34.5947H110.703V163.771C110.703 165.606 109.974 167.366 108.676 168.663C107.379 169.961 105.619 170.69 103.784 170.69Z" fill="#AC8361"/>
</svg>
