<svg width="512" height="512" viewBox="0 0 512 512" fill="none" xmlns="http://www.w3.org/2000/svg">
<path d="M272.952 479.239H272.882C237.385 478.881 202.441 470.409 170.721 454.47C139.002 438.531 111.349 415.548 89.8767 387.28C68.4047 359.011 53.683 326.206 46.838 291.373C39.9929 256.541 41.2057 220.604 50.3837 186.313C50.6005 185.416 50.9943 184.572 51.5418 183.831C52.0894 183.089 52.7798 182.464 53.5723 181.992C54.3649 181.521 55.2437 181.213 56.157 181.086C57.0703 180.959 57.9998 181.016 58.8908 181.254C59.7818 181.491 60.6164 181.904 61.3454 182.469C62.0744 183.034 62.6832 183.738 63.136 184.542C63.5888 185.345 63.8765 186.231 63.9821 187.147C64.0877 188.063 64.0092 188.991 63.7511 189.876C55.1164 222.129 53.9736 255.93 60.4101 288.693C66.8467 321.456 80.692 352.312 100.887 378.902C121.082 405.491 147.091 427.109 176.925 442.102C206.759 457.094 239.626 465.064 273.014 465.401C274.849 465.409 276.605 466.146 277.897 467.45C279.189 468.753 279.91 470.516 279.902 472.351C279.893 474.186 279.156 475.943 277.853 477.234C276.55 478.526 274.787 479.247 272.952 479.239Z" fill="#AC8361"/>
<path d="M84.9021 131.847C83.6605 131.846 82.442 131.511 81.3744 130.877C80.3067 130.243 79.4294 129.334 78.8343 128.244C78.2392 127.154 77.9483 125.925 77.9921 124.684C78.0359 123.443 78.4128 122.237 79.0833 121.192C88.1653 107.028 98.7503 93.8867 110.654 81.9961C132.262 60.387 157.915 43.2456 186.148 31.5508C214.381 19.8559 244.641 13.8367 275.2 13.8367C305.759 13.8367 336.019 19.8559 364.252 31.5508C392.485 43.2456 418.138 60.387 439.746 81.9961C441.006 83.301 441.704 85.0488 441.688 86.8629C441.672 88.677 440.944 90.4124 439.662 91.6952C438.379 92.978 436.643 93.7057 434.829 93.7214C433.015 93.7372 431.267 93.0398 429.962 91.7795C409.639 71.4557 385.511 55.334 358.957 44.3348C332.403 33.3356 303.942 27.6744 275.2 27.6744C246.458 27.6744 217.997 33.3356 191.443 44.3348C164.889 55.334 140.761 71.4557 120.438 91.7795C109.241 102.969 99.2822 115.333 90.7348 128.657C90.1085 129.636 89.246 130.441 88.2266 130.999C87.2073 131.556 86.0639 131.848 84.9021 131.847Z" fill="#AC8361"/>
<path d="M500.784 247.351C498.98 247.352 497.247 246.648 495.954 245.389C494.662 244.13 493.912 242.416 493.865 240.612C492.945 204.082 482.872 168.367 464.571 136.739C464.089 135.953 463.77 135.079 463.631 134.168C463.492 133.257 463.537 132.327 463.762 131.433C463.988 130.54 464.389 129.7 464.944 128.964C465.498 128.228 466.194 127.61 466.99 127.146C467.787 126.682 468.668 126.382 469.581 126.264C470.495 126.145 471.424 126.211 472.312 126.456C473.2 126.701 474.031 127.121 474.755 127.692C475.478 128.262 476.081 128.972 476.527 129.778C495.996 163.415 506.714 201.4 507.696 240.253C507.745 242.087 507.063 243.865 505.8 245.196C504.538 246.527 502.798 247.303 500.964 247.351H500.784Z" fill="#AC8361"/>
<path d="M461.492 381.025C460.229 381.024 458.991 380.679 457.912 380.025C456.832 379.371 455.951 378.435 455.365 377.317C454.78 376.199 454.511 374.942 454.588 373.682C454.666 372.422 455.086 371.207 455.804 370.169C459.43 364.924 462.896 359.327 466.1 353.529C466.534 352.724 467.123 352.012 467.834 351.436C468.545 350.86 469.363 350.431 470.241 350.173C471.119 349.915 472.039 349.834 472.949 349.935C473.858 350.035 474.739 350.314 475.539 350.757C476.34 351.2 477.045 351.797 477.613 352.515C478.181 353.232 478.602 354.054 478.85 354.935C479.098 355.816 479.169 356.737 479.059 357.645C478.949 358.553 478.659 359.431 478.208 360.227C474.783 366.454 471.075 372.418 467.193 378.036C466.556 378.959 465.704 379.713 464.711 380.234C463.718 380.754 462.613 381.026 461.492 381.025Z" fill="#AC8361"/>
<path d="M333.699 471.594C331.971 471.613 330.298 470.986 329.009 469.834C327.721 468.682 326.91 467.089 326.736 465.37C326.563 463.65 327.039 461.928 328.072 460.542C329.104 459.156 330.618 458.206 332.316 457.88C366.539 448.617 397.993 431.163 423.964 407.026C424.625 406.386 425.407 405.883 426.264 405.549C427.122 405.214 428.038 405.054 428.958 405.078C429.878 405.102 430.784 405.309 431.623 405.688C432.462 406.066 433.217 406.608 433.844 407.282C434.471 407.956 434.957 408.748 435.274 409.612C435.591 410.477 435.733 411.395 435.69 412.315C435.648 413.234 435.422 414.136 435.027 414.967C434.631 415.798 434.074 416.542 433.387 417.156C405.654 442.937 372.036 461.545 335.464 471.358C334.889 471.514 334.295 471.593 333.699 471.594Z" fill="#AC8361"/>
<path d="M491.181 319.246C490.477 319.247 489.778 319.142 489.105 318.935C488.237 318.666 487.43 318.229 486.731 317.649C486.031 317.069 485.453 316.356 485.029 315.553C484.605 314.749 484.343 313.869 484.259 312.965C484.175 312.06 484.27 311.147 484.539 310.279C486.529 303.806 488.19 297.236 489.513 290.595C489.88 288.796 490.947 287.217 492.478 286.205C494.009 285.193 495.879 284.831 497.678 285.198C499.476 285.565 501.055 286.631 502.067 288.162C503.079 289.693 503.441 291.564 503.074 293.362C501.538 300.973 499.809 307.823 497.788 314.382C497.35 315.791 496.472 317.024 495.283 317.899C494.095 318.774 492.657 319.246 491.181 319.246Z" fill="#AC8361"/>
<path d="M434.854 93.8067H381.634C379.799 93.8067 378.039 93.0777 376.741 91.7802C375.444 90.4826 374.715 88.7228 374.715 86.8878C374.715 85.0528 375.444 83.2929 376.741 81.9954C378.039 80.6978 379.799 79.9689 381.634 79.9689H427.935V33.6675C427.935 31.8324 428.664 30.0726 429.962 28.775C431.259 27.4775 433.019 26.7485 434.854 26.7485C436.689 26.7485 438.449 27.4775 439.746 28.775C441.044 30.0726 441.773 31.8324 441.773 33.6675V86.8878C441.773 88.7228 441.044 90.4826 439.746 91.7802C438.449 93.0777 436.689 93.8067 434.854 93.8067Z" fill="#AC8361"/>
<path d="M83.7189 241.111C82.5033 241.112 81.3087 240.793 80.2557 240.185C79.2026 239.578 78.3281 238.704 77.7202 237.651L54.5695 197.556L14.4744 220.714C12.8861 221.617 11.0051 221.855 9.24186 221.376C7.47863 220.897 5.97631 219.741 5.06276 218.158C4.14921 216.576 3.89859 214.697 4.36559 212.93C4.83259 211.164 5.9793 209.654 7.55547 208.73L53.6424 182.12C54.4295 181.665 55.2987 181.369 56.2003 181.25C57.1018 181.13 58.018 181.19 58.8964 181.425C59.7749 181.661 60.5983 182.067 61.3197 182.62C62.0411 183.174 62.6462 183.864 63.1006 184.652L89.7038 230.739C90.3108 231.79 90.6304 232.983 90.6308 234.197C90.6311 235.411 90.312 236.603 89.7056 237.655C89.0992 238.707 88.2267 239.58 87.1759 240.188C86.1251 240.796 84.9329 241.116 83.7189 241.117V241.111Z" fill="#AC8361"/>
<path d="M379.717 498.162C378.503 498.162 377.31 497.842 376.258 497.235L330.171 470.632C329.383 470.178 328.692 469.573 328.137 468.852C327.583 468.131 327.176 467.308 326.94 466.429C326.704 465.551 326.644 464.634 326.763 463.732C326.881 462.831 327.177 461.961 327.632 461.174L354.249 415.087C355.166 413.497 356.678 412.336 358.451 411.861C360.224 411.385 362.114 411.633 363.704 412.551C365.294 413.468 366.454 414.98 366.93 416.753C367.405 418.526 367.157 420.415 366.239 422.006L343.089 462.101L383.184 485.251C384.503 486.013 385.534 487.188 386.116 488.596C386.699 490.003 386.801 491.563 386.407 493.034C386.013 494.505 385.144 495.805 383.936 496.732C382.728 497.659 381.247 498.162 379.724 498.162H379.717Z" fill="#AC8361"/>
<path d="M288.519 401.297H258.076C255.602 401.294 253.196 400.481 251.228 398.982C249.26 397.482 247.838 395.379 247.178 392.995L241.643 372.563C229.095 369.455 217.082 364.488 206.004 357.826L187.634 368.336C185.482 369.566 182.984 370.054 180.527 369.723C178.07 369.393 175.79 368.264 174.038 366.509L152.424 344.936C150.673 343.182 149.547 340.901 149.218 338.445C148.89 335.989 149.376 333.493 150.604 331.34L161.114 312.97C154.452 301.892 149.485 289.879 146.377 277.331L125.952 271.796C123.553 271.139 121.437 269.71 119.931 267.731C118.426 265.751 117.614 263.33 117.622 260.843V230.4C117.624 227.926 118.438 225.521 119.937 223.553C121.437 221.585 123.54 220.162 125.924 219.503L146.356 213.967C149.464 201.419 154.431 189.407 161.093 178.328L150.583 159.958C149.354 157.806 148.867 155.308 149.197 152.852C149.527 150.395 150.656 148.115 152.41 146.363L173.962 124.803C175.714 123.049 177.995 121.92 180.452 121.591C182.909 121.262 185.407 121.751 187.558 122.984L205.928 133.494C217.006 126.832 229.019 121.864 241.567 118.756L247.102 98.3316C247.75 95.9189 249.177 93.7881 251.162 92.2713C253.147 90.7545 255.578 89.9369 258.076 89.9459H288.519C290.993 89.9486 293.398 90.762 295.366 92.2614C297.334 93.7609 298.757 95.8639 299.416 98.2486L304.951 118.68C317.499 121.788 329.512 126.756 340.591 133.417L358.96 122.908C361.113 121.68 363.61 121.193 366.067 121.523C368.524 121.853 370.804 122.981 372.556 124.734L394.115 146.287C395.866 148.041 396.992 150.321 397.321 152.777C397.65 155.233 397.163 157.73 395.935 159.882L385.425 178.252C392.087 189.331 397.055 201.343 400.163 213.891L420.587 219.427C423 220.074 425.131 221.501 426.648 223.486C428.164 225.471 428.982 227.902 428.973 230.4V260.843C428.97 263.317 428.157 265.722 426.657 267.691C425.158 269.659 423.055 271.081 420.67 271.74L400.239 277.276C397.131 289.824 392.163 301.836 385.501 312.915L396.011 331.285C397.24 333.437 397.727 335.935 397.397 338.391C397.067 340.848 395.938 343.128 394.185 344.88L372.611 366.495C370.858 368.247 368.578 369.374 366.121 369.702C363.665 370.031 361.168 369.544 359.016 368.315L340.646 357.805C329.568 364.467 317.555 369.434 305.007 372.542L299.472 392.967C298.815 395.366 297.386 397.482 295.406 398.987C293.427 400.493 291.006 401.305 288.519 401.297ZM259.965 387.459H286.575L292.712 364.911C293.045 363.683 293.71 362.572 294.634 361.698C295.558 360.824 296.705 360.221 297.949 359.957C311.733 357.019 324.863 351.588 336.695 343.932C337.761 343.247 338.994 342.867 340.26 342.834C341.527 342.801 342.778 343.116 343.877 343.746L364.143 355.335L382.955 336.522L371.366 316.257C370.737 315.157 370.421 313.906 370.454 312.64C370.487 311.373 370.867 310.14 371.553 309.075C379.209 297.243 384.639 284.112 387.577 270.329C387.842 269.085 388.444 267.938 389.318 267.014C390.192 266.09 391.304 265.425 392.531 265.091L415.135 258.927V232.316L392.586 226.179C391.359 225.846 390.247 225.181 389.373 224.257C388.499 223.333 387.897 222.186 387.632 220.942C384.695 207.159 379.264 194.028 371.608 182.196C370.923 181.131 370.543 179.897 370.51 178.631C370.477 177.365 370.792 176.113 371.421 175.014L383.011 154.748L364.198 135.936L343.933 147.525C342.833 148.154 341.582 148.47 340.316 148.437C339.049 148.404 337.816 148.024 336.751 147.338C324.919 139.682 311.788 134.252 298.005 131.314C296.761 131.05 295.614 130.447 294.69 129.573C293.766 128.699 293.101 127.588 292.767 126.36L286.602 103.784H259.992L253.855 126.332C253.522 127.56 252.857 128.672 251.933 129.546C251.009 130.419 249.862 131.022 248.618 131.286C234.834 134.224 221.704 139.655 209.872 147.311C208.806 147.996 207.573 148.376 206.307 148.409C205.04 148.442 203.789 148.127 202.69 147.497L182.424 135.908L163.612 154.721L175.201 174.986C175.83 176.086 176.146 177.337 176.113 178.603C176.08 179.87 175.7 181.103 175.014 182.168C167.358 194 161.928 207.131 158.99 220.914C158.725 222.158 158.123 223.305 157.249 224.229C156.375 225.153 155.263 225.818 154.036 226.152L131.459 232.316V258.927L154.008 265.064C155.236 265.397 156.347 266.062 157.221 266.986C158.095 267.91 158.698 269.057 158.962 270.301C161.9 284.085 167.33 297.215 174.986 309.047C175.672 310.113 176.052 311.346 176.085 312.612C176.118 313.878 175.803 315.13 175.173 316.229L163.584 336.495L182.397 355.307L202.662 343.718C203.762 343.089 205.013 342.773 206.279 342.806C207.546 342.839 208.779 343.219 209.844 343.905C221.676 351.561 234.807 356.991 248.59 359.929C249.834 360.194 250.981 360.796 251.905 361.67C252.829 362.544 253.494 363.656 253.827 364.883L259.965 387.459Z" fill="#AC8361"/>
<path d="M273.297 338.404C254.947 338.404 237.008 332.963 221.75 322.768C206.492 312.573 194.6 298.082 187.577 281.128C180.555 264.174 178.717 245.519 182.297 227.521C185.878 209.523 194.714 192.99 207.69 180.014C220.666 167.038 237.198 158.202 255.196 154.622C273.194 151.042 291.85 152.879 308.804 159.902C325.758 166.924 340.248 178.816 350.443 194.074C360.639 209.332 366.08 227.271 366.08 245.622C366.054 270.221 356.271 293.806 338.876 311.201C321.482 328.595 297.897 338.379 273.297 338.404ZM273.297 166.677C257.684 166.677 242.42 171.307 229.438 179.981C216.456 188.656 206.337 200.985 200.362 215.411C194.387 229.836 192.823 245.709 195.869 261.023C198.916 276.337 206.434 290.403 217.475 301.444C228.516 312.485 242.582 320.003 257.896 323.05C273.21 326.096 289.083 324.532 303.508 318.557C317.934 312.582 330.263 302.463 338.938 289.481C347.612 276.499 352.242 261.235 352.242 245.622C352.22 224.691 343.896 204.624 329.096 189.823C314.295 175.023 294.228 166.699 273.297 166.677Z" fill="#AC8361"/>
</svg>
